<?xml version="1.0" encoding="UTF-8"?>
<svg id="Layer_1" data-name="Layer 1" xmlns="http://www.w3.org/2000/svg" viewBox="0 0 255.12 97.39">
  <defs>
    <style>
      .cls-1 {
        fill: #fff;
        stroke-width: 0px;
      }
    </style>
  </defs>
  <g>
    <path class="cls-1" d="m248.98,28.39h-.81v-.62h2.28v.62h-.81v4.37h-.66v-4.37Z"/>
    <path class="cls-1" d="m253.29,30.81c0-.88.02-1.9.03-2.46h0c-.12.85-.44,2.94-.68,4.4h-.63c-.18-1.29-.51-3.51-.62-4.41h-.01c.01.58.04,1.71.04,2.57v1.84h-.61v-4.99h.99c.23,1.35.49,2.95.55,3.62h0c.08-.67.4-2.34.63-3.62h.96v4.99h-.64v-1.95Z"/>
  </g>
  <g>
    <g>
      <path class="cls-1" d="m26.45,63.04c0,6.2,0,10.39.09,12.66h-7.42c-.17-.87-.35-3.06-.35-4.45-1.48,4.02-4.45,5.15-8.21,5.15-4.02,0-8.91-1.75-8.91-11.62V30.81h7.86v31.96c0,4.63,1.31,6.55,4.28,6.55s4.8-1.83,4.8-8.82v-29.69h7.86v32.23Z"/>
      <path class="cls-1" d="m34.3,44.61c0-9.08,0-11.7-.09-13.8h7.42c.17,1.05.35,2.71.35,4.28,1.31-2.88,3.76-4.98,8.21-4.98,5.24,0,9.08,3.06,9.08,11.44v34.15h-7.86v-32.58c0-4.19-1.4-5.94-4.19-5.94-3.41,0-5.15,1.75-5.15,8.82v29.69h-7.77v-31.09Z"/>
      <path class="cls-1" d="m74.21,54.97l-2.36,20.73h-7.95L73.43,3.95h11.09l9.87,71.75h-8.21l-2.62-20.73h-9.34Zm8.38-8.91c-1.57-13.64-2.97-25.56-3.58-33.08h-.26c-.26,5.8-2.18,21.48-3.49,33.08h7.34Z"/>
      <path class="cls-1" d="m122.86,73.87c0,9.61-.96,17.64-13.1,17.64-10.13,0-11.88-6.55-11.88-11.44v-.26h7.86v.26c0,1.66.61,4.89,4.45,4.89,4.11,0,4.89-3.06,4.89-9.08v-5.24c-1.13,2.71-3.58,4.37-7.51,4.37-7.6,0-9.78-5.85-9.78-13.97v-17.38c0-6.9,2.79-13.54,10.74-13.54,4.72,0,6.64,2.27,7.42,4.63,0-1.31.17-3.14.35-3.93h6.73c-.09,2.62-.17,6.46-.17,11.44v31.61Zm-17.21-13.45c0,5.07,1.31,7.6,4.37,7.6,4.37,0,5.07-3.84,5.07-9.61v-13.19c0-4.37-.44-8.03-4.54-8.03-3.23,0-4.89,2.27-4.89,6.9v16.33Z"/>
      <path class="cls-1" d="m137.09,55.18v6.9c0,3.93.79,7.69,4.63,7.69s4.46-3.32,4.46-6.99v-.26h7.6v.26c0,4.89-1.05,13.62-11.88,13.62s-12.49-6.73-12.49-15.81v-15.55c0-6.37,2.18-14.93,12.49-14.93,9.17,0,12.05,6.46,12.05,14.93v10.13h-16.86Zm9.34-6.2v-5.07c0-4.11-.78-7.16-4.54-7.16-3.49,0-4.72,2.62-4.72,7.25v4.98h9.26Z"/>
      <path class="cls-1" d="m160.23,44.61c0-9.08,0-11.7-.09-13.8h7.42c.17,1.05.35,2.71.35,4.28,1.31-2.88,3.76-4.98,8.21-4.98,5.24,0,9.08,3.06,9.08,11.44v34.15h-7.86v-32.58c0-4.19-1.4-5.94-4.19-5.94-3.41,0-5.15,1.75-5.15,8.82v29.69h-7.77v-31.09Z"/>
      <path class="cls-1" d="m215.43,61.12v.61c0,7.95-2.01,14.67-11.97,14.67s-11.7-6.55-11.7-15.81v-16.24c0-7.42,2.62-14.24,12.14-14.24,10.22,0,11.53,7.42,11.53,13.19v1.75h-7.77v-1.75c0-3.76-.52-6.55-3.93-6.55-2.97,0-4.1,2.27-4.1,6.73v19.39c0,3.49.7,6.9,4.1,6.9,3.14,0,3.93-2.36,3.93-6.81v-1.83h7.77Z"/>
      <path class="cls-1" d="m227.04,30.81c2.71,15.37,5.15,29.87,5.5,35.37h.26c.79-7.51,3.14-18.78,5.94-35.37h7.77l-10.04,47.16c-2.71,12.75-6.99,13.45-12.05,13.45-1.4,0-2.71-.17-3.76-.35l.09-7.07c.17.09,1.57.26,2.62.26,2.97,0,4.37-1.13,5.41-6.81l-10.13-46.64h8.38Z"/>
    </g>
    <g>
      <path class="cls-1" d="m4.34,11.35H1.65v-2.08h7.63v2.08h-2.7v14.64h-2.24v-14.64Z"/>
      <path class="cls-1" d="m10.46,9.27h2.24v6.74h3.07v-6.74h2.24v16.72h-2.24v-7.92h-3.07v7.92h-2.24V9.27Z"/>
      <path class="cls-1" d="m26.29,18.15h-3.71v5.77h4.24l-.29,2.06h-6.19V9.27h6.15v2.08h-3.91v4.75h3.71v2.06Z"/>
    </g>
  </g>
</svg>